<svg id="Слой_1" data-name="Слой 1" xmlns="http://www.w3.org/2000/svg" xmlns:xlink="http://www.w3.org/1999/xlink" viewBox="0 0 500 500"><defs><style>.cls-1{fill:url(#Безымянный_градиент);}.cls-2{fill:url(#Безымянный_градиент_2);}.cls-3{fill:#fff;}.cls-4{fill:#feda03;}.cls-5{fill:url(#Безымянный_градиент_3);}</style><linearGradient id="Безымянный_градиент" x1="41.2" y1="151.8" x2="41.2" y2="151.8" gradientTransform="matrix(1, 0, 0, -1, 0, 500)" gradientUnits="userSpaceOnUse"><stop offset="0.13" stop-color="#ffcb00"/><stop offset="0.45" stop-color="#fdca00" stop-opacity="0.63"/><stop offset="0.57" stop-color="#f6c400" stop-opacity="0.49"/><stop offset="0.65" stop-color="#ebbb00" stop-opacity="0.4"/><stop offset="0.72" stop-color="#daad00" stop-opacity="0.32"/><stop offset="0.78" stop-color="#c49c00" stop-opacity="0.25"/><stop offset="0.83" stop-color="#a88600" stop-opacity="0.19"/><stop offset="0.88" stop-color="#886c00" stop-opacity="0.14"/><stop offset="0.92" stop-color="#624e00" stop-opacity="0.09"/><stop offset="0.96" stop-color="#372c00" stop-opacity="0.05"/><stop offset="0.99" stop-color="#090700" stop-opacity="0.01"/><stop offset="1" stop-opacity="0"/></linearGradient><linearGradient id="Безымянный_градиент_2" x1="457.5" y1="130" x2="457.5" y2="130" xlink:href="#Безымянный_градиент"/><linearGradient id="Безымянный_градиент_3" x1="246.15" y1="340.59" x2="246.15" y2="148.16" gradientTransform="matrix(1, 0, 0, -1, 0, 500)" gradientUnits="userSpaceOnUse"><stop offset="0.13" stop-color="#feda03"/><stop offset="0.21" stop-color="#f8d403" stop-opacity="0.91"/><stop offset="0.32" stop-color="#e5c503" stop-opacity="0.78"/><stop offset="0.45" stop-color="#c8ab03" stop-opacity="0.63"/><stop offset="0.59" stop-color="#9e8803" stop-opacity="0.47"/><stop offset="0.75" stop-color="#695a02" stop-opacity="0.29"/><stop offset="0.91" stop-color="#292302" stop-opacity="0.1"/><stop offset="1" stop-color="#020202" stop-opacity="0"/></linearGradient></defs><title>logotype_black</title><g id="Слой_1-2" data-name="Слой 1"><rect width="500" height="500"/></g><g id="Слой_2" data-name="Слой 2"><path class="cls-1" d="M41.2,348.2"/><path class="cls-2" d="M457.5,370"/><path class="cls-3" d="M328.8,54.1C312.5,30.2,283,14.3,249.4,14.3S186.3,30.2,170,54.1c24.6-2.3,51.4-3.6,79.4-3.6S304.2,51.8,328.8,54.1Z"/><path class="cls-3" d="M249.4,63.4C138,63.4,47.7,85.7,47.7,113.2c0,16,30.5,30.2,77.8,39.3,3.9-26,57.9-46.5,123.9-46.5s120,20.6,123.9,46.5c47.4-9.1,77.8-23.3,77.8-39.3C451.1,85.7,360.8,63.4,249.4,63.4ZM96,127.2c-8.1,0-14.6-6.3-14.6-14s6.6-14,14.6-14,14.6,6.3,14.6,14S104.1,127.2,96,127.2Zm76.8-21.1c-8.1,0-14.6-6.3-14.6-14s6.6-14,14.6-14,14.6,6.3,14.6,14S180.8,106.1,172.8,106.1Zm76.7-7.3c-8.1,0-14.6-6.3-14.6-14s6.6-14,14.6-14,14.6,6.3,14.6,14S257.6,98.8,249.5,98.8Zm76.8,7.3c-8.1,0-14.6-6.3-14.6-14s6.6-14,14.6-14,14.6,6.3,14.6,14S334.4,106.1,326.3,106.1Zm76.8,21.1c-8.1,0-14.6-6.3-14.6-14s6.6-14,14.6-14,14.6,6.3,14.6,14S411.2,127.2,403.1,127.2Z"/><path class="cls-3" d="M249.4,118.9c-61.1,0-110.6,19.1-110.6,42.7,0,11.8,12.3,22.4,32.3,30.1a18.68,18.68,0,0,1-4.3-11.5c0-19.9,37-36.1,82.6-36.1S332,160.3,332,180.2a18.68,18.68,0,0,1-4.3,11.5c19.9-7.7,32.3-18.4,32.3-30.1C360,138,310.5,118.9,249.4,118.9Z"/><path class="cls-3" d="M42.3,441.1V427.7l49.2-41.4H42.3V373.9h67.2v13.4L60.3,428.7h49.2v12.4Z"/><path class="cls-3" d="M132.2,441.1a12.94,12.94,0,0,1-9.2-3.8,12.38,12.38,0,0,1-3.8-9.2V386.8a12.94,12.94,0,0,1,3.8-9.2,12.38,12.38,0,0,1,9.2-3.8h41.3a12.94,12.94,0,0,1,9.2,3.8,12.38,12.38,0,0,1,3.8,9.2v41.3a12.94,12.94,0,0,1-3.8,9.2,12.38,12.38,0,0,1-9.2,3.8Zm2.6-12.4h36a7.31,7.31,0,0,0,2.9-.3,6.2,6.2,0,0,0,.4-2.9V389.6c0-1.7-.1-2.7-.4-2.9s-1.2-.3-2.9-.3h-36c-1.7,0-2.7.1-2.9.3s-.3,1.2-.3,2.9v35.9c0,1.7.1,2.7.3,2.9S133,428.7,134.8,428.7Z"/><path class="cls-3" d="M196.7,441.1V373.9h13.5L251.5,423V373.9h12.4v67.2H250.4L209,391.9v49.2Z"/><path class="cls-3" d="M274.6,441.1V386.8a12.94,12.94,0,0,1,3.8-9.2,12.38,12.38,0,0,1,9.2-3.8h41.2a12.61,12.61,0,0,1,9.2,3.8,12.38,12.38,0,0,1,3.8,9.2v54.3H329.4V418.5H286.9v22.6Zm12.3-34.9h42.5V389.6c0-1.7-.1-2.7-.4-2.9a7.31,7.31,0,0,0-2.9-.3h-36c-1.7,0-2.7.1-2.9.3s-.3,1.2-.3,2.9v16.6Z"/><path class="cls-3" d="M365.4,441.1a13,13,0,0,1-12.9-12.9v-4.4h12.2v1.8c0,1.7.1,2.7.3,2.9s1.2.3,2.9.3h35.6c1.7,0,2.7-.1,2.9-.3s.3-1.2.3-2.9v-9.3c0-1.7-.1-2.7-.3-2.9s-1.2-.3-2.9-.3H352.4V374H419v12.2H367.9c-1.7,0-2.7.1-2.9.3s-.3,1.2-.3,2.9v8c0,1.7.1,2.7.3,2.9s1.2.3,2.9.3h38.2A13,13,0,0,1,419,413.5v14.7a13,13,0,0,1-12.9,12.9Z"/><path class="cls-3" d="M446.3,441.1V391.5L441,398H424.8l20.3-24.2h13.5V441H446.3Z"/><path class="cls-4" d="M41.5,470.4c0-14.8,22-14.8,22,0S41.5,485.2,41.5,470.4Zm16.4,0a5.41,5.41,0,1,0-10.8,0C47.1,478.2,57.9,478.2,57.9,470.4Z"/><path class="cls-4" d="M77.4,459.4c4.4,0,9.3,2.4,10.1,8.2H82.1a4.55,4.55,0,0,0-4.7-3.2c-3.2,0-5.3,2.4-5.3,6,0,3.2,2.1,5.9,5.3,5.9a4.65,4.65,0,0,0,4.8-3.5h5.4c-.8,6.1-5.6,8.5-10.2,8.5-5.5,0-11-3.6-11-10.9S71.9,459.4,77.4,459.4Z"/><path class="cls-4" d="M89.6,464.5v-4.9h15.9v4.9h-5.2v16.6H94.9V464.5Z"/><path class="cls-4" d="M107.7,470.4c0-14.8,22-14.8,22,0S107.7,485.2,107.7,470.4Zm16.4,0a5.41,5.41,0,1,0-10.8,0C113.3,478.2,124.1,478.2,124.1,470.4Z"/><path class="cls-4" d="M133.8,481.1V459.6h9.4c10.3,0,10.3,16,0,16h-4v5.5Zm9.4-16.6h-3.9v6.1h3.9C146.2,470.7,146.4,464.6,143.2,464.5Z"/><path class="cls-4" d="M153.8,470.4c0-14.8,22-14.8,22,0S153.8,485.2,153.8,470.4Zm16.4,0a5.41,5.41,0,1,0-10.8,0C159.4,478.2,170.2,478.2,170.2,470.4Z"/><path class="cls-4" d="M189.4,472.9c-.3,0-.7-.1-1.1-.1l-4.7,8.3h-6.1v-.9l5.8-9.4c-4.3-2.7-4.1-6.8-4.1-11.2h5.6c0,3.9-.3,7.8,4.6,8.1v-8.1H195v8.1c4.9-.3,4.6-4.2,4.6-8.1h5.6c0,4.4.2,8.4-4.1,11.2l5.8,9.4v.9h-6.1l-4.7-8.3a4.48,4.48,0,0,1-1.1.1v8.2h-5.6Z"/><path class="cls-4" d="M227.9,481.1h-5.6v-8.6h-6.6v8.6h-5.6V459.6h5.6v7.8h6.6v-7.8h5.6Z"/><path class="cls-4" d="M232.1,470.4c0-14.8,22-14.8,22,0S232.1,485.2,232.1,470.4Zm16.4,0a5.41,5.41,0,1,0-10.8,0C237.7,478.2,248.5,478.2,248.5,470.4Z"/><path class="cls-4" d="M265.9,465c-.2-4,3-5.8,6.8-5.8,4.7,0,7.1,3.1,7.1,6.2a5.1,5.1,0,0,1-1.9,4,5.49,5.49,0,0,1,3.1,5.3c0,3.8-2.8,6.7-8.3,6.7-4.7,0-7.5-2.6-7.5-7.4H270a2.6,2.6,0,0,0,2.7,2.8c3.7,0,3.7-4.9,0-4.9h-1.5v-4.5h1.4a1.85,1.85,0,1,0,.1-3.7c-1.2,0-1.9.5-1.9,1.3Z"/><path class="cls-4" d="M297.4,478.4h-8.5l-1.3,2.7h-5.4v-.8l9.7-20.9h2.4l9.7,20.9v.8h-5.4Zm-4.3-10.3-2.4,5.6h4.9Z"/><path class="cls-4" d="M303.4,464.5v-4.9h15.9v4.9h-5.2v16.6h-5.4V464.5Z"/><path class="cls-4" d="M324.9,473.5c-5.4-3.7-3.9-13.8,4.5-13.9h9.4v21.5h-5.5v-6.3h-2.9l-3.7,6.3h-6.1v-.8Zm8.4-3.7v-5.3h-3.9c-3.1,0-3,5.3,0,5.3Z"/><path class="cls-4" d="M349.9,481.1h-5.6V459.6h13.4v4.9h-7.8Z"/><path class="cls-4" d="M363.5,481.1h-2V459.6h5.6v10.5L378,459.5h2v21.6h-5.7V470.6Z"/><path class="cls-4" d="M399.6,469.9a4.78,4.78,0,0,1,2.6,4.4c0,3.7-2.3,6.8-6.7,6.8H385.4V459.6h9.2a6.62,6.62,0,0,1,6.7,6.6A4.8,4.8,0,0,1,399.6,469.9Zm-8.8-5.4V468h3.5c2.2,0,2.2-3.5,0-3.5Zm0,8.1v3.6h4.4c2.2,0,2.2-3.6,0-3.6Z"/><path class="cls-4" d="M418.9,478.4h-8.5l-1.3,2.7h-5.4v-.8l9.7-20.9h2.4l9.7,20.9v.8h-5.4Zm-4.3-10.3-2.4,5.6h4.9Z"/><path class="cls-4" d="M441.7,464.5h-7.9v3h7.3v4.9h-7.3v3.8H442v4.9H428.3V459.6h13.4Z"/><path class="cls-4" d="M444.6,464.5v-4.9h15.9v4.9h-5.2v16.6h-5.4V464.5Z"/><path class="cls-5" d="M451.1,361.8l-409.9-.6,155-182.8h0c11.2-12.9,30.3-21.4,52-21.4,21.4,0,40.3,8.3,51.5,20.9h0v.1L451.1,361.8"/><path d="M318.6,270a2.2,2.2,0,0,0-2.2-2.1c-7.9.1-21.8.3-25.3-.9v-7.2c3.3.1,9.2.4,14.4.2,4.2-.2,7.3,1.3,8.8-6.3.7-3.9,3-12.8,3.8-20.5.7-7.1,2.5-13.2-4.1-13.2-9.9,0-22.3-.4-33-.8-6.6-.2-12.5-.8-13,2.1-1.3,7.2-2.3,14.9-3.4,24-1.1,8.8-2.1,12.5-.2,12.7,7.2.8,11.6.4,18.2,1.2,0,.5-.3,1.5-.3,1.9-19.6,2.5-25.8,1.6-35.5-22.4.5-.7,1.2-2.4,2.1-4a33.11,33.11,0,0,0,4.2,1.2c1.3.3,2.7.1,3.2-1.2.8-1.8,2.4-3.4,2.1-5.6a4.17,4.17,0,0,0,.6-.2c2.2-.5,2.2-.5,2-2.8v-.6c-.1-2.3,0-4.4,1.6-6.4a8.56,8.56,0,0,0,1.6-7.7c-.7-1.9-6.5-4.7-7.7-3.7-1.9,1.5-4.7,6.8-4.7,6.8l-1,1.6a7.26,7.26,0,0,1,2.8,4.5c.4,3-1.2,6.1-3.5,6.8a7.35,7.35,0,0,1-8-2.1c-3.2-3.4-1.8-9.1,2.5-10.2,1-.3,2.2-.4,2.7-1.3.2-.3.3-.5.4-.5a7.84,7.84,0,0,0,1-1.5c1-1.8,1.6-2.6,2.5-4.5a2.85,2.85,0,0,0,.2-1.6,1.86,1.86,0,0,0-.9-1.1c-4.4-2.1-10-2.9-14.7,6.9-.7,1.5-1.5,6.7-1.5,6.7,0,6.6,1.4,7.3,2.6,9.8-19.9,7.9-45.4,33.3-40.4,57.2-4.6-6.4-7.9-14.9-5.5-25.3,5.5-23.9,4.3-19.6,11-30.3,1.3-2.1,0-5-3.2-5.2-3.8-.2-8.8.8-11.9,3.3-9.7,7.6-13.5,15-17.2,26.1-10.4,30.9.8,45.8,16.1,59.3,2.3,2,6.6,3.8,11.4,4.8a57.39,57.39,0,0,0-1.4,12.4c-.1,5.5,11.8,23.3,11.8,23.3H214s-11.8-17.5-11.8-22.9a51.35,51.35,0,0,1,1.2-11.7c5.6.5,10.9,0,13.7-2.2,2.5-1.9,6.2-7.6,6.2-11.3,7,2.6,2,13.6,2,22.5-.1,8.7-7,22.8,7.1,19.9.3-.3.5-.7.2-2-6.8-.9,6.5-27.3,6.9-31.8.6-3.6.3-6.7,4.4-8.7.8-.2,13.3-3.8,10.3,8.1-2.6,10.3-23.9,43.4-8.1,43.5-6.9-16.6,18.3-14.2,20.4-57.3.8-17.1-20.2-20.3-37.6-19.1,3.8-16.1,4.2-33.6,22.4-13.4h-7.8a1.54,1.54,0,0,0-1.5,1.5l.1,4.8a1.32,1.32,0,0,0,1.3,1.3h45.9a147.18,147.18,0,0,1,3,30.3c0,9.1-11.8,38.2-11.8,38.2h6.4s11.8-29.5,11.8-38.7a138.19,138.19,0,0,0-3-29.8l7.2.1h13.4a2.24,2.24,0,0,0,2.2-2.3Z"/><path d="M243.8,221.2a3.64,3.64,0,0,0,3.7,3.4,3,3,0,0,0,3-3,3.63,3.63,0,0,0-3.3-3.7A3.49,3.49,0,0,0,243.8,221.2Z"/></g></svg>